name C:/MyDriveSym/Projects/mobilecap/Data\Session20210903_0002\mocap\ForceDataProcessed\walking2_forces.mot
datacolumns 19
datarows 22
range 0.30200000 0.31250000
endheader 
time	R_ground_force_vx	R_ground_force_vy	R_ground_force_vz	R_ground_force_px	R_ground_force_py	R_ground_force_pz	R_ground_torque_x	R_ground_torque_y	R_ground_torque_z	L_ground_force_vx	L_ground_force_vy	L_ground_force_vz	L_ground_force_px	L_ground_force_py	L_ground_force_pz	L_ground_torque_x	L_ground_torque_y	L_ground_torque_z	
          0.30200000	         -1.95674600	        412.08851400	        -23.57499100	          0.20700000	          0.00600000	         -0.11031500	          0.00000000	         -1.85282200	          0.00000000	          0.00000000	          0.00000000	          0.00000000	          0.69231100	          0.00000000	         -0.18832700	          0.00000000	          0.00000000	          0.00000000	
          0.30250000	         -1.77268400	        412.32496100	        -23.57507700	          0.20720700	          0.00600000	         -0.11031800	          0.00000000	         -1.86069900	          0.00000000	          0.00000000	          0.00000000	          0.00000000	          0.69231100	          0.00000000	         -0.18832700	          0.00000000	          0.00000000	          0.00000000	
          0.30300000	         -1.58860200	        412.56743100	        -23.57546900	          0.20741300	          0.00600000	         -0.11032200	          0.00000000	         -1.86855800	          0.00000000	          0.00000000	          0.00000000	          0.00000000	          0.69231100	          0.00000000	         -0.18832700	          0.00000000	          0.00000000	          0.00000000	
          0.30350000	         -1.40449000	        412.81589700	        -23.57616600	          0.20761900	          0.00600000	         -0.11032600	          0.00000000	         -1.87639900	          0.00000000	          0.00000000	          0.00000000	          0.00000000	          0.69231100	          0.00000000	         -0.18832700	          0.00000000	          0.00000000	          0.00000000	
          0.30400000	         -1.22033800	        413.07033100	        -23.57716900	          0.20782400	          0.00600000	         -0.11033000	          0.00000000	         -1.88422000	          0.00000000	          0.00000000	          0.00000000	          0.00000000	          0.69231100	          0.00000000	         -0.18832700	          0.00000000	          0.00000000	          0.00000000	
          0.30450000	         -1.03613500	        413.33070600	        -23.57847400	          0.20803000	          0.00600000	         -0.11033500	          0.00000000	         -1.89202100	          0.00000000	          0.00000000	          0.00000000	          0.00000000	          0.69231100	          0.00000000	         -0.18832700	          0.00000000	          0.00000000	          0.00000000	
          0.30500000	         -0.85187100	        413.59699600	        -23.58008200	          0.20823500	          0.00600000	         -0.11034000	          0.00000000	         -1.89980200	          0.00000000	          0.00000000	          0.00000000	          0.00000000	          0.69231100	          0.00000000	         -0.18832700	          0.00000000	          0.00000000	          0.00000000	
          0.30550000	         -0.66753500	        413.86917300	        -23.58199100	          0.20843900	          0.00600000	         -0.11034500	          0.00000000	         -1.90756200	          0.00000000	          0.00000000	          0.00000000	          0.00000000	          0.69231100	          0.00000000	         -0.18832700	          0.00000000	          0.00000000	          0.00000000	
          0.30600000	         -0.48311900	        414.14720800	        -23.58420000	          0.20864400	          0.00600000	         -0.11035100	          0.00000000	         -1.91530100	          0.00000000	          0.00000000	          0.00000000	          0.00000000	          0.69231100	          0.00000000	         -0.18832700	          0.00000000	          0.00000000	          0.00000000	
          0.30650000	         -0.29861200	        414.43107500	        -23.58670800	          0.20884800	          0.00600000	         -0.11035700	          0.00000000	         -1.92301700	          0.00000000	          0.00000000	          0.00000000	          0.00000000	          0.69231100	          0.00000000	         -0.18832700	          0.00000000	          0.00000000	          0.00000000	
          0.30700000	         -0.11400300	        414.72074400	        -23.58951200	          0.20905100	          0.00600000	         -0.11036300	          0.00000000	         -1.93071100	          0.00000000	          0.00000000	          0.00000000	          0.00000000	          0.69231100	          0.00000000	         -0.18832700	          0.00000000	          0.00000000	          0.00000000	
          0.30750000	          0.07071700	        415.01618800	        -23.59261300	          0.20925500	          0.00600000	         -0.11036900	          0.00000000	         -1.93838100	          0.00000000	          0.00000000	          0.00000000	          0.00000000	          0.69231100	          0.00000000	         -0.18832700	          0.00000000	          0.00000000	          0.00000000	
          0.30800000	          0.25555800	        415.31737800	        -23.59600900	          0.20945800	          0.00600000	         -0.11037600	          0.00000000	         -1.94602800	          0.00000000	          0.00000000	          0.00000000	          0.00000000	          0.69231100	          0.00000000	         -0.18832700	          0.00000000	          0.00000000	          0.00000000	
          0.30850000	          0.44053000	        415.62428600	        -23.59969700	          0.20966000	          0.00600000	         -0.11038300	          0.00000000	         -1.95365000	          0.00000000	          0.00000000	          0.00000000	          0.00000000	          0.69231100	          0.00000000	         -0.18832700	          0.00000000	          0.00000000	          0.00000000	
          0.30900000	          0.62564300	        415.93688200	        -23.60367800	          0.20986200	          0.00600000	         -0.11039100	          0.00000000	         -1.96124800	          0.00000000	          0.00000000	          0.00000000	          0.00000000	          0.69231100	          0.00000000	         -0.18832700	          0.00000000	          0.00000000	          0.00000000	
          0.30950000	          0.81090600	        416.25513800	        -23.60794900	          0.21006400	          0.00600000	         -0.11039800	          0.00000000	         -1.96881900	          0.00000000	          0.00000000	          0.00000000	          0.00000000	          0.69231100	          0.00000000	         -0.18832700	          0.00000000	          0.00000000	          0.00000000	
          0.31000000	          0.99632900	        416.57902400	        -23.61251000	          0.21026600	          0.00600000	         -0.11040600	          0.00000000	         -1.97636500	          0.00000000	          0.00000000	          0.00000000	          0.00000000	          0.69231100	          0.00000000	         -0.18832700	          0.00000000	          0.00000000	          0.00000000	
          0.31050000	          1.18192100	        416.90851100	        -23.61735800	          0.21046700	          0.00600000	         -0.11041500	          0.00000000	         -1.98388500	          0.00000000	          0.00000000	          0.00000000	          0.00000000	          0.69231100	          0.00000000	         -0.18832700	          0.00000000	          0.00000000	          0.00000000	
          0.31100000	          1.36769300	        417.24357000	        -23.62249300	          0.21066800	          0.00600000	         -0.11042300	          0.00000000	         -1.99137700	          0.00000000	          0.00000000	          0.00000000	          0.00000000	          0.69231100	          0.00000000	         -0.18832700	          0.00000000	          0.00000000	          0.00000000	
          0.31150000	          1.55365400	        417.58417000	        -23.62791300	          0.21086900	          0.00600000	         -0.11043200	          0.00000000	         -1.99884100	          0.00000000	          0.00000000	          0.00000000	          0.00000000	          0.69231100	          0.00000000	         -0.18832700	          0.00000000	          0.00000000	          0.00000000	
          0.31200000	          1.73981200	        417.93028200	        -23.63361600	          0.21106900	          0.00600000	         -0.11044100	          0.00000000	         -2.00627700	          0.00000000	          0.00000000	          0.00000000	          0.00000000	          0.69231100	          0.00000000	         -0.18832700	          0.00000000	          0.00000000	          0.00000000	
          0.31250000	          1.92617900	        418.28187600	        -23.63960000	          0.21126900	          0.00600000	         -0.11045000	          0.00000000	         -2.01368400	          0.00000000	          0.00000000	          0.00000000	          0.00000000	          0.69231100	          0.00000000	         -0.18832700	          0.00000000	          0.00000000	          0.00000000	
